<svg width="20.000000" height="13.000000" viewBox="0 0 20 13" fill="none" xmlns="http://www.w3.org/2000/svg" xmlns:xlink="http://www.w3.org/1999/xlink">
	<desc>
			Created with Pixso.
	</desc>
	<defs/>
	<path id="Vector" d="M8.48 6.89L8.48 6.5C8.48 4.91 8.58 3.45 8.72 2.51L8.84 1.92C8.91 1.61 9 1.25 9.09 1.07C9.44 0.41 10.11 0 10.83 0L10.89 0C11.36 0.01 12.35 0.42 12.35 0.44C13.93 1.1 16.99 3.11 18.41 4.54L18.82 4.97C18.92 5.09 19.04 5.23 19.12 5.33C19.37 5.67 19.5 6.08 19.5 6.49C19.5 6.94 19.35 7.37 19.09 7.72L18.67 8.17L18.57 8.27C17.29 9.66 13.94 11.94 12.19 12.63L11.93 12.73C11.61 12.85 11.16 12.98 10.89 13C10.55 13 10.22 12.92 9.91 12.76C9.51 12.54 9.2 12.19 9.03 11.78C8.92 11.49 8.75 10.64 8.75 10.63C8.59 9.76 8.5 8.41 8.48 6.89ZM0 6.49C0 5.59 0.72 4.85 1.62 4.85L5.63 5.2C6.34 5.2 6.91 5.78 6.91 6.49C6.91 7.21 6.34 7.78 5.63 7.78L1.62 8.14C0.72 8.14 0 7.4 0 6.49Z" fill="#FFFFFF" fill-opacity="1.000000" fill-rule="nonzero"/>
</svg>
