<svg width="22.000000" height="22.000000" viewBox="0 0 22 22" fill="none" xmlns="http://www.w3.org/2000/svg" xmlns:xlink="http://www.w3.org/1999/xlink">
	<desc>
			Created with Pixso.
	</desc>
	<defs/>
	<path id="Vector" d="M8.27 20.09C7.77 20.09 7.36 19.68 7.36 19.18C7.36 18.67 7.77 18.27 8.27 18.27C8.77 18.27 9.18 18.67 9.18 19.18C9.18 19.68 8.77 20.09 8.27 20.09Z" stroke="#FF800B" stroke-opacity="1.000000" stroke-width="2.000000" stroke-linejoin="round"/>
	<path id="Vector" d="M18.27 20.09C17.77 20.09 17.36 19.68 17.36 19.18C17.36 18.67 17.77 18.27 18.27 18.27C18.77 18.27 19.18 18.67 19.18 19.18C19.18 19.68 18.77 20.09 18.27 20.09Z" stroke="#FF800B" stroke-opacity="1.000000" stroke-width="2.000000" stroke-linejoin="round"/>
	<path id="Vector" d="M1 1L4.63 1L7.07 13.17C7.15 13.59 7.38 13.96 7.71 14.23C8.04 14.5 8.46 14.64 8.89 14.63L17.72 14.63C18.15 14.64 18.56 14.5 18.9 14.23C19.23 13.96 19.46 13.59 19.54 13.17L21 5.54L5.54 5.54" stroke="#FF800B" stroke-opacity="1.000000" stroke-width="2.000000" stroke-linejoin="round" stroke-linecap="round"/>
</svg>
