<svg width="24.000000" height="24.000000" viewBox="0 0 24 24" fill="none" xmlns="http://www.w3.org/2000/svg" xmlns:xlink="http://www.w3.org/1999/xlink">
	<desc>
			Created with Pixso.
	</desc>
	<defs/>
	<path id="Vector" d="M8.99 22C8.44 22 7.99 21.55 7.99 21C7.99 20.44 8.44 20 8.99 20C9.55 20 9.99 20.44 9.99 21C9.99 21.55 9.55 22 8.99 22Z" stroke="#FFFFFF" stroke-opacity="1.000000" stroke-width="2.000000" stroke-linejoin="round"/>
	<path id="Vector" d="M19.99 22C19.44 22 18.99 21.55 18.99 21C18.99 20.44 19.44 20 19.99 20C20.55 20 20.99 20.44 20.99 21C20.99 21.55 20.55 22 19.99 22Z" stroke="#FFFFFF" stroke-opacity="1.000000" stroke-width="2.000000" stroke-linejoin="round"/>
	<path id="Vector" d="M1 1L5 1L7.68 14.39C7.77 14.85 8.02 15.26 8.38 15.55C8.75 15.85 9.21 16 9.68 16L19.4 16C19.86 16 20.32 15.85 20.69 15.55C21.05 15.26 21.3 14.85 21.4 14.39L23 6L6 6" stroke="#FFFFFF" stroke-opacity="1.000000" stroke-width="2.000000" stroke-linejoin="round" stroke-linecap="round"/>
</svg>
