<svg width="22.000000" height="22.000000" viewBox="0 0 22 22" fill="none" xmlns="http://www.w3.org/2000/svg" xmlns:xlink="http://www.w3.org/1999/xlink">
	<desc>
			Created with Pixso.
	</desc>
	<defs>
		<clipPath id="clip1_128">
			<rect id="smartphone" width="22.000000" height="22.000000" fill="white" fill-opacity="0"/>
		</clipPath>
	</defs>
	<rect id="smartphone" width="22.000000" height="22.000000" fill="#FFFFFF" fill-opacity="0"/>
	<g clip-path="url(#clip1_128)">
		<path id="Vector" d="M5.86 16.13L8.79 16.13C9 16.13 9.16 15.96 9.16 15.76C9.16 15.56 9 15.39 8.79 15.39L5.86 15.39C5.66 15.39 5.49 15.56 5.49 15.76C5.49 15.96 5.66 16.13 5.86 16.13Z" fill="#FFFFFF" fill-opacity="1.000000" fill-rule="nonzero"/>
		<path id="Vector" d="M0.66 17.6C0.78 17.77 0.91 17.96 1.07 18.22C1.14 18.32 1.21 18.43 1.28 18.53C1.58 18.9 1.77 19.34 1.83 19.81L1.83 20.89C1.83 21.5 2.32 22 2.93 22L7.33 22C7.94 22 8.43 21.5 8.43 20.89L8.43 19.43C8.43 19.29 8.51 19.17 8.63 19.1C9.34 18.74 9.96 18.22 10.46 17.6L10.63 17.6C10.76 17.6 10.89 17.58 11.02 17.54L12.16 19.27C12.72 20.04 13.67 20.42 14.61 20.26C14.79 20.23 14.97 20.3 15.08 20.45L15.78 21.48C16.15 22.01 16.88 22.15 17.41 21.79L21.48 18.97C21.73 18.8 21.91 18.53 21.97 18.23C22.03 17.93 21.97 17.62 21.8 17.36C21.64 16.99 21.59 16.58 21.65 16.17C21.66 16.08 21.66 15.98 21.67 15.89C21.68 15.57 21.66 15.26 21.64 14.96C21.63 14.85 21.63 14.73 21.62 14.62C21.56 13.11 21.08 11.66 20.24 10.41L18.09 7.24C17.66 6.57 16.78 6.35 16.09 6.75C15.81 6.92 15.6 7.17 15.48 7.46C15.12 7.19 14.65 7.1 14.21 7.22C13.77 7.34 13.42 7.66 13.25 8.09C12.92 7.84 12.5 7.74 12.1 7.82L12.1 1.46C12.1 0.65 11.44 0 10.63 0L4.03 0C3.22 0 2.56 0.65 2.56 1.46L2.56 6.28C2.46 6.25 2.35 6.23 2.23 6.23L2.17 6.23C1.62 6.23 1.15 6.65 1.09 7.2C1.03 7.7 0.93 8.2 0.8 8.69C0.71 8.96 0.61 9.22 0.5 9.48C0.26 9.95 0.11 10.48 0.07 11.01C0.06 11.32 0.07 11.66 0.09 11.98C0.1 12.28 0.11 12.59 0.1 12.88C0.1 13.07 0.08 13.37 0.06 13.71C0.02 14.44 -0.03 15.35 0.01 15.79C0.01 16.45 0.24 17.09 0.66 17.6ZM12.98 8.85L13.4 9.46C13.42 9.49 13.45 9.52 13.49 9.55C13.5 9.55 13.5 9.56 13.51 9.56C13.55 9.58 13.58 9.6 13.62 9.61L13.64 9.61C13.66 9.61 13.68 9.61 13.7 9.61C13.72 9.61 13.73 9.61 13.75 9.61C13.76 9.61 13.77 9.6 13.78 9.6C13.83 9.59 13.87 9.58 13.91 9.55C14.07 9.44 14.12 9.21 14 9.04C13.78 8.71 13.86 8.25 14.2 8.02C14.54 7.8 14.99 7.88 15.22 8.22L15.63 8.83C15.74 9 15.97 9.04 16.13 8.92C16.3 8.81 16.35 8.59 16.24 8.42C16.12 8.25 16.08 8.05 16.13 7.85C16.17 7.65 16.29 7.48 16.46 7.38C16.82 7.19 17.27 7.31 17.48 7.65L19.63 10.82C20.4 11.96 20.83 13.28 20.89 14.65C20.89 14.77 20.9 14.89 20.91 15C20.93 15.3 20.94 15.59 20.93 15.87C20.93 15.96 20.93 16.05 20.92 16.14C20.84 16.69 20.93 17.26 21.18 17.76C21.25 17.86 21.27 17.98 21.25 18.09C21.23 18.21 21.16 18.31 21.06 18.37L17 21.19C16.8 21.32 16.52 21.27 16.39 21.07L15.68 20.03C15.41 19.66 14.96 19.47 14.51 19.54C13.85 19.67 13.17 19.4 12.77 18.86L11.48 16.91L11.48 16.91C11.48 16.9 11.47 16.9 11.47 16.9L10.5 15.42C10.23 15.02 10.2 14.34 10.58 14.08L10.99 13.77L13.45 17.39C13.52 17.5 13.65 17.57 13.78 17.56C13.92 17.55 14.04 17.47 14.09 17.35C14.15 17.23 14.14 17.08 14.06 16.98L11.41 13.1C11.4 13.07 11.39 13.04 11.37 13.01C11.36 13 11.35 12.99 11.33 12.98L7.09 6.75C6.94 6.53 6.92 6.25 7.04 6.01C7.15 5.78 7.38 5.62 7.64 5.6C7.91 5.59 8.16 5.71 8.3 5.93L11.37 10.39C11.44 10.5 11.57 10.56 11.7 10.55C11.83 10.54 11.95 10.46 12.01 10.34C12.06 10.22 12.05 10.08 11.97 9.97L11.77 9.68C11.77 9.68 11.77 9.67 11.77 9.67C11.54 9.34 11.63 8.88 11.97 8.65C12.3 8.43 12.76 8.51 12.98 8.85ZM9.16 5.88L8.91 5.51C8.62 5.07 8.11 4.82 7.59 4.86C7.06 4.9 6.6 5.21 6.37 5.69C6.14 6.16 6.18 6.72 6.48 7.16L6.79 7.6C5.89 7.32 5.35 6.41 5.54 5.49C5.73 4.57 6.59 3.94 7.52 4.04C8.45 4.13 9.16 4.92 9.16 5.86L9.16 5.88ZM9.16 0.73L9.16 1.1C9.16 1.3 9 1.46 8.8 1.46L5.86 1.46C5.66 1.46 5.5 1.3 5.5 1.1L5.5 0.73L9.16 0.73ZM3.3 1.46C3.3 1.06 3.62 0.73 4.03 0.73L4.76 0.73L4.76 1.1C4.76 1.7 5.25 2.19 5.86 2.19L8.8 2.19C9.4 2.19 9.9 1.7 9.9 1.1L9.9 0.73L10.63 0.73C11.03 0.73 11.36 1.06 11.36 1.46L11.36 8.21C11.23 8.33 11.13 8.47 11.06 8.64L9.74 6.73C9.84 6.45 9.9 6.16 9.9 5.86C9.9 4.44 8.75 3.3 7.33 3.3C5.91 3.3 4.76 4.44 4.76 5.86C4.76 7.28 5.91 8.43 7.33 8.43L7.35 8.43L10.57 13.16L10.15 13.49C9.4 13.99 9.41 15.13 9.89 15.83L10.57 16.86L4.03 16.86C3.62 16.86 3.3 16.53 3.3 16.13L3.3 11.78C3.73 10.84 3.98 9.83 4.03 8.8L4.03 8.8C4.03 7.68 3.68 7.05 3.3 6.69L3.3 1.46ZM0.79 13.75C0.81 13.4 0.83 13.1 0.84 12.9C0.84 12.59 0.83 12.27 0.82 11.95C0.81 11.63 0.79 11.32 0.8 11.03C0.84 10.59 0.96 10.16 1.17 9.77C1.3 9.49 1.41 9.19 1.5 8.89C1.65 8.37 1.75 7.83 1.82 7.28C1.84 7.1 1.99 6.96 2.17 6.96L2.23 6.96C2.38 6.97 2.53 7.02 2.66 7.11C2.69 7.14 2.72 7.17 2.76 7.19C3.03 7.42 3.3 7.87 3.3 8.8C3.29 8.81 3.29 8.83 3.3 8.85C3.36 9.93 2.58 11.68 2.4 11.77C2.25 11.84 2.16 12.01 2.2 12.18C2.24 12.34 2.39 12.46 2.56 12.46L2.56 16.13C2.56 16.94 3.22 17.6 4.03 17.6L9.48 17.6C9.11 17.93 8.7 18.23 8.26 18.47C7.92 18.66 7.7 19.03 7.7 19.43L7.7 20.89C7.7 21.1 7.53 21.26 7.33 21.26L2.93 21.26C2.73 21.26 2.56 21.1 2.56 20.89L2.56 19.81C2.51 19.2 2.27 18.61 1.89 18.13C1.82 18.03 1.76 17.93 1.7 17.83C1.53 17.56 1.39 17.36 1.26 17.18C0.92 16.78 0.74 16.26 0.74 15.73C0.71 15.35 0.76 14.46 0.79 13.75Z" fill="#FFFFFF" fill-opacity="1.000000" fill-rule="nonzero"/>
		<path id="Vector" d="M3.66 20.53L4.03 20.53C4.23 20.53 4.39 20.36 4.39 20.16C4.39 19.96 4.23 19.79 4.03 19.79L3.66 19.79C3.46 19.79 3.29 19.96 3.29 20.16C3.29 20.36 3.46 20.53 3.66 20.53Z" fill="#FFFFFF" fill-opacity="1.000000" fill-rule="nonzero"/>
		<path id="Vector" d="M5.49 20.53L6.59 20.53C6.8 20.53 6.96 20.36 6.96 20.16C6.96 19.96 6.8 19.79 6.59 19.79L5.49 19.79C5.29 19.79 5.13 19.96 5.13 20.16C5.13 20.36 5.29 20.53 5.49 20.53Z" fill="#FFFFFF" fill-opacity="1.000000" fill-rule="nonzero"/>
		<path id="Vector" d="M17.23 20.07C17.31 20.07 17.38 20.04 17.44 20L17.74 19.8C17.85 19.73 17.92 19.6 17.91 19.47C17.9 19.33 17.82 19.22 17.7 19.16C17.58 19.1 17.44 19.12 17.33 19.19L17.03 19.4C16.89 19.49 16.83 19.65 16.88 19.81C16.93 19.96 17.07 20.07 17.23 20.07Z" fill="#FFFFFF" fill-opacity="1.000000" fill-rule="nonzero"/>
		<path id="Vector" d="M18.75 19.04C18.82 19.04 18.89 19.02 18.95 18.98L20.26 18.09C20.38 18.02 20.45 17.89 20.44 17.76C20.43 17.62 20.35 17.5 20.23 17.44C20.1 17.39 19.96 17.4 19.85 17.49L18.54 18.37C18.41 18.46 18.35 18.63 18.4 18.78C18.45 18.94 18.59 19.04 18.75 19.04L18.75 19.04Z" fill="#FFFFFF" fill-opacity="1.000000" fill-rule="nonzero"/>
	</g>
</svg>
