<svg width="22.000000" height="22.000000" viewBox="0 0 22 22" fill="none" xmlns="http://www.w3.org/2000/svg" xmlns:xlink="http://www.w3.org/1999/xlink">
	<desc>
			Created with Pixso.
	</desc>
	<defs>
		<clipPath id="clip1_109">
			<rect id="credit-card" width="22.000000" height="22.000000" fill="white" fill-opacity="0"/>
		</clipPath>
	</defs>
	<rect id="credit-card" width="22.000000" height="22.000000" fill="#FFFFFF" fill-opacity="0"/>
	<g clip-path="url(#clip1_109)">
		<path id="Vector" d="M21.31 13.74C20.93 13.74 20.62 14.05 20.62 14.43L20.62 19.24L1.37 19.24L1.37 10.99L8.93 10.99C9.31 10.99 9.62 10.69 9.62 10.31C9.62 9.93 9.31 9.62 8.93 9.62L1.37 9.62L1.37 6.87L8.93 6.87C9.31 6.87 9.62 6.56 9.62 6.18C9.62 5.8 9.31 5.49 8.93 5.49L1.37 5.49C0.61 5.49 0 6.11 0 6.87L0 19.24C0 20 0.61 20.62 1.37 20.62L20.62 20.62C21.38 20.62 22 20 22 19.24L22 14.43C22 14.05 21.69 13.74 21.31 13.74Z" fill="#FFFFFF" fill-opacity="1.000000" fill-rule="nonzero"/>
		<path id="Vector" d="M6.18 13.74L3.43 13.74C3.05 13.74 2.75 14.05 2.75 14.43C2.75 14.81 3.05 15.12 3.43 15.12L6.18 15.12C6.56 15.12 6.87 14.81 6.87 14.43C6.87 14.05 6.56 13.74 6.18 13.74Z" fill="#FFFFFF" fill-opacity="1.000000" fill-rule="nonzero"/>
		<path id="Vector" d="M21.58 3.49L16.77 1.43C16.59 1.35 16.4 1.35 16.22 1.43L11.41 3.49C11.16 3.6 11 3.85 11 4.12L11 6.87C11 10.65 12.39 12.86 16.15 15.03C16.26 15.09 16.38 15.12 16.5 15.12C16.61 15.12 16.73 15.09 16.84 15.03C20.6 12.87 22 10.66 22 6.87L22 4.12C22 3.85 21.83 3.6 21.58 3.49ZM20.62 6.87C20.62 10.05 19.57 11.79 16.5 13.64C13.42 11.79 12.37 10.04 12.37 6.87L12.37 4.57L16.5 2.81L20.62 4.57L20.62 6.87Z" fill="#FFFFFF" fill-opacity="1.000000" fill-rule="nonzero"/>
		<path id="Vector" d="M18.99 5.64C18.69 5.41 18.26 5.46 18.02 5.75L15.86 8.45L15 7.18C14.79 6.86 14.36 6.78 14.05 6.99C13.74 7.2 13.65 7.62 13.86 7.94L15.24 10C15.36 10.18 15.56 10.3 15.78 10.31C15.79 10.31 15.8 10.31 15.81 10.31C16.02 10.31 16.21 10.21 16.35 10.05L19.1 6.61C19.33 6.31 19.28 5.88 18.99 5.64Z" fill="#FFFFFF" fill-opacity="1.000000" fill-rule="nonzero"/>
	</g>
</svg>
