<svg width="21.000000" height="20.000000" viewBox="0 0 21 20" fill="none" xmlns="http://www.w3.org/2000/svg" xmlns:xlink="http://www.w3.org/1999/xlink">
	<desc>
			Created with Pixso.
	</desc>
	<defs>
		<clipPath id="clip1_216">
			<rect id="linkedin" width="21.000000" height="20.000000" fill="white" fill-opacity="0"/>
		</clipPath>
	</defs>
	<rect id="linkedin" width="21.000000" height="20.000000" fill="#FFFFFF" fill-opacity="0"/>
	<g clip-path="url(#clip1_216)">
		<path id="Vector" d="M20.99 19.99L20.99 19.99L21 19.99L21 12.66C21 9.07 20.18 6.31 15.78 6.31C13.66 6.31 12.24 7.41 11.66 8.46L11.6 8.46L11.6 6.64L7.42 6.64L7.42 19.99L11.77 19.99L11.77 13.38C11.77 11.64 12.12 9.96 14.38 9.96C16.61 9.96 16.65 11.95 16.65 13.49L16.65 19.99L20.99 19.99Z" fill="#545761" fill-opacity="1.000000" fill-rule="nonzero"/>
		<path id="Vector" d="M0.34 6.64L4.7 6.64L4.7 20L0.34 20L0.34 6.64Z" fill="#545761" fill-opacity="1.000000" fill-rule="nonzero"/>
		<path id="Vector" d="M2.52 0C1.12 0 0 1.07 0 2.4C0 3.72 1.12 4.82 2.52 4.82C3.91 4.82 5.04 3.72 5.04 2.4C5.04 1.07 3.91 0 2.52 0L2.52 0Z" fill="#545761" fill-opacity="1.000000" fill-rule="nonzero"/>
	</g>
</svg>
