<svg width="20.000000" height="20.000000" viewBox="0 0 20 20" fill="none" xmlns="http://www.w3.org/2000/svg" xmlns:xlink="http://www.w3.org/1999/xlink">
	<desc>
			Created with Pixso.
	</desc>
	<defs/>
	<path id="Vector" d="M19.75 18.57L14.06 12.88C15.16 11.52 15.83 9.79 15.83 7.91C15.83 3.55 12.28 0 7.91 0C3.55 0 0 3.55 0 7.91C0 12.28 3.55 15.83 7.91 15.83C9.79 15.83 11.52 15.16 12.88 14.06L18.57 19.75C18.73 19.91 18.95 19.99 19.16 19.99C19.37 19.99 19.59 19.91 19.75 19.75C20.08 19.42 20.08 18.9 19.75 18.57ZM7.91 14.16C4.46 14.16 1.66 11.36 1.66 7.91C1.66 4.46 4.46 1.66 7.91 1.66C11.36 1.66 14.16 4.46 14.16 7.91C14.16 11.36 11.36 14.16 7.91 14.16Z" fill="#FF800B" fill-opacity="1.000000" fill-rule="nonzero"/>
</svg>
