<svg width="22.000000" height="22.000000" viewBox="0 0 22 22" fill="none" xmlns="http://www.w3.org/2000/svg" xmlns:xlink="http://www.w3.org/1999/xlink">
	<desc>
			Created with Pixso.
	</desc>
	<defs>
		<clipPath id="clip1_144">
			<rect id="shipped 1" width="22.000000" height="22.000000" fill="white" fill-opacity="0"/>
		</clipPath>
	</defs>
	<rect id="shipped 1" width="22.000000" height="22.000000" fill="#FFFFFF" fill-opacity="0"/>
	<g clip-path="url(#clip1_144)">
		<path id="Vector" d="M20.45 9.94L19.89 7.66C20.04 7.62 20.16 7.49 20.16 7.32L20.16 6.95C20.16 6.16 19.51 5.51 18.71 5.51L16.12 5.51L16.12 4.75C16.12 4.36 15.8 4.04 15.4 4.04L2.18 4.04C1.78 4.04 1.46 4.36 1.46 4.75L1.46 11C1.46 11.19 1.62 11.34 1.81 11.34C2 11.34 2.15 11.19 2.15 11L2.15 4.75C2.15 4.74 2.16 4.73 2.18 4.73L15.4 4.73C15.42 4.73 15.43 4.74 15.43 4.75L15.43 11C15.43 11.19 15.58 11.34 15.77 11.34C15.96 11.34 16.12 11.19 16.12 11L16.12 10.6L20.18 10.6C20.18 10.6 20.18 10.6 20.18 10.6C20.18 10.6 20.18 10.6 20.18 10.6C20.68 10.61 21.11 10.93 21.25 11.39L20.18 11.39C19.99 11.39 19.84 11.54 19.84 11.73L19.84 12.47C19.84 13.06 20.32 13.54 20.92 13.54L21.31 13.54L21.31 15.06L20.41 15.06C20.11 14.21 19.3 13.59 18.34 13.59C17.39 13.59 16.58 14.21 16.28 15.06L16.12 15.06L16.12 12.47C16.12 12.27 15.96 12.12 15.77 12.12C15.58 12.12 15.43 12.27 15.43 12.47L15.43 15.06L8.28 15.06C7.98 14.21 7.17 13.59 6.22 13.59C5.26 13.59 4.45 14.21 4.16 15.06L2.18 15.06C2.16 15.06 2.15 15.05 2.15 15.04L2.15 14.28L3.65 14.28C3.84 14.28 3.99 14.12 3.99 13.93C3.99 13.74 3.84 13.59 3.65 13.59L0.34 13.59C0.15 13.59 0 13.74 0 13.93C0 14.12 0.15 14.28 0.34 14.28L1.46 14.28L1.46 15.04C1.46 15.43 1.78 15.75 2.18 15.75L4.04 15.75C4.04 15.76 4.04 15.76 4.04 15.77C4.04 16.97 5.02 17.95 6.22 17.95C7.42 17.95 8.4 16.97 8.4 15.77C8.4 15.76 8.4 15.76 8.4 15.75L16.16 15.75C16.16 15.76 16.16 15.76 16.16 15.77C16.16 16.97 17.14 17.95 18.34 17.95C19.55 17.95 20.53 16.97 20.53 15.77C20.53 15.76 20.52 15.76 20.52 15.75L21.65 15.75C21.84 15.75 22 15.59 22 15.4L22 11.73C22 10.82 21.33 10.07 20.45 9.94ZM16.12 6.2L18.71 6.2C19.13 6.2 19.47 6.54 19.47 6.95L19.47 6.98L16.12 6.98L16.12 6.2ZM16.12 9.92L16.12 7.67L19.18 7.67L19.74 9.92L16.12 9.92ZM6.22 17.26C5.4 17.26 4.73 16.6 4.73 15.77C4.73 14.95 5.4 14.28 6.22 14.28C7.04 14.28 7.71 14.95 7.71 15.77C7.71 16.6 7.04 17.26 6.22 17.26ZM18.34 17.26C17.52 17.26 16.85 16.6 16.85 15.77C16.85 14.95 17.52 14.28 18.34 14.28C19.17 14.28 19.84 14.95 19.84 15.77C19.84 16.6 19.17 17.26 18.34 17.26ZM21.31 12.86L20.92 12.86C20.7 12.86 20.53 12.68 20.53 12.47L20.53 12.07L21.31 12.07L21.31 12.86L21.31 12.86Z" fill="#FFFFFF" fill-opacity="1.000000" fill-rule="nonzero"/>
		<path id="Vector" d="M6.22 15.06C5.83 15.06 5.51 15.38 5.51 15.77C5.51 16.16 5.83 16.48 6.22 16.48C6.61 16.48 6.93 16.16 6.93 15.77C6.93 15.38 6.61 15.06 6.22 15.06Z" fill="#FFFFFF" fill-opacity="1.000000" fill-rule="nonzero"/>
		<path id="Vector" d="M18.34 15.06C17.95 15.06 17.63 15.38 17.63 15.77C17.63 16.16 17.95 16.48 18.34 16.48C18.74 16.48 19.06 16.16 19.06 15.77C19.06 15.38 18.74 15.06 18.34 15.06Z" fill="#FFFFFF" fill-opacity="1.000000" fill-rule="nonzero"/>
		<path id="Vector" d="M14.3 13.59L9.16 13.59C8.97 13.59 8.81 13.74 8.81 13.93C8.81 14.12 8.97 14.28 9.16 14.28L14.3 14.28C14.49 14.28 14.65 14.12 14.65 13.93C14.65 13.74 14.49 13.59 14.3 13.59Z" fill="#FFFFFF" fill-opacity="1.000000" fill-rule="nonzero"/>
		<path id="Vector" d="M5.48 12.12L1.07 12.12C0.88 12.12 0.73 12.27 0.73 12.46C0.73 12.65 0.88 12.81 1.07 12.81L5.48 12.81C5.67 12.81 5.83 12.65 5.83 12.46C5.83 12.27 5.67 12.12 5.48 12.12Z" fill="#FFFFFF" fill-opacity="1.000000" fill-rule="nonzero"/>
		<path id="Vector" d="M11.97 7.44C11.84 7.31 11.62 7.31 11.49 7.44L8.42 10.51L6.83 8.91C6.69 8.78 6.48 8.78 6.34 8.91C6.21 9.05 6.21 9.27 6.34 9.4L8.18 11.24C8.25 11.31 8.33 11.34 8.42 11.34C8.51 11.34 8.6 11.31 8.67 11.24L11.97 7.93C12.11 7.8 12.11 7.58 11.97 7.44Z" fill="#FFFFFF" fill-opacity="1.000000" fill-rule="nonzero"/>
	</g>
</svg>
