<svg width="26.000000" height="26.000000" viewBox="0 0 26 26" fill="none" xmlns="http://www.w3.org/2000/svg" xmlns:xlink="http://www.w3.org/1999/xlink">
	<desc>
			Created with Pixso.
	</desc>
	<defs/>
	<circle id="Ellipse 36" cx="13.000000" cy="13.000000" r="13.000000" fill="#00AFD7" fill-opacity="1.000000"/>
	<path id="Vector" d="M18.78 9.64C18.71 9.55 18.59 9.53 18.49 9.58C18.39 9.63 18.29 9.67 18.19 9.7C18.35 9.47 18.47 9.22 18.55 8.95C18.59 8.81 18.51 8.67 18.38 8.63C18.31 8.61 18.24 8.62 18.18 8.67C17.82 8.88 17.43 9.04 17.03 9.15C16.2 8.31 14.93 8.21 14 8.9C13.27 9.43 12.87 10.33 12.96 11.27C11.39 11.12 9.95 10.29 8.97 8.96C8.92 8.9 8.85 8.86 8.77 8.87C8.69 8.87 8.62 8.92 8.58 8.99C8.25 9.57 8.15 10.27 8.31 10.93C8.4 11.27 8.54 11.59 8.73 11.87C8.64 11.82 8.56 11.77 8.49 11.7C8.38 11.61 8.23 11.63 8.15 11.74C8.11 11.78 8.09 11.84 8.09 11.9C8.11 12.85 8.6 13.73 9.37 14.19C9.27 14.18 9.17 14.15 9.07 14.12C8.94 14.08 8.8 14.16 8.77 14.29C8.75 14.35 8.75 14.42 8.78 14.47C9.11 15.28 9.79 15.88 10.6 16.07C9.83 16.54 8.94 16.73 8.06 16.63C7.95 16.62 7.84 16.69 7.81 16.81C7.77 16.92 7.82 17.05 7.92 17.11C8.99 17.8 10.22 18.17 11.47 18.2C12.67 18.19 13.84 17.81 14.84 17.09C16.74 15.73 17.93 13.3 17.76 11.12C18.17 10.79 18.52 10.4 18.81 9.95C18.87 9.85 18.85 9.72 18.78 9.64Z" fill="#FFFFFF" fill-opacity="1.000000" fill-rule="nonzero"/>
</svg>
