<svg width="20.000000" height="14.000000" viewBox="0 0 20 14" fill="none" xmlns="http://www.w3.org/2000/svg" xmlns:xlink="http://www.w3.org/1999/xlink">
	<desc>
			Created with Pixso.
	</desc>
	<defs/>
	<path id="Vector" d="M19.14 1.29C18.6 0.35 18.01 0.17 16.81 0.11C15.61 0.03 12.6 0 9.98 0C7.37 0 4.35 0.03 3.15 0.11C1.95 0.17 1.36 0.35 0.82 1.29C0.26 2.24 -0.03 3.86 -0.03 6.73C-0.03 6.73 -0.03 6.73 -0.03 6.73C-0.03 6.74 -0.03 6.74 -0.03 6.74L-0.03 6.74C-0.03 9.59 0.26 11.23 0.82 12.16C1.36 13.11 1.95 13.28 3.15 13.36C4.35 13.43 7.37 13.47 9.98 13.47C12.6 13.47 15.61 13.43 16.81 13.36C18.01 13.28 18.6 13.11 19.14 12.17C19.71 11.23 19.99 9.59 19.99 6.74C19.99 6.74 19.99 6.74 19.99 6.73C19.99 6.73 19.99 6.73 19.99 6.73C19.99 3.86 19.71 2.24 19.14 1.29ZM7.48 10.41L7.48 3.06L13.74 6.73L7.48 10.41Z" fill="#545761" fill-opacity="1.000000" fill-rule="nonzero"/>
</svg>
